# xmcd
#
# Track frame offsets: 
#        150
#        35567
#        63363
#        114195
#        140852
#        177546
#        208613
#        256296
#        298985
#
# Disc length: 4068 seconds
#
# Revision: 0
# Processed by: cddbd v1.5.2PL0 Copyright (c) Steve Scherf et al.
# Submitted via: ExactAudioCopyFreeDBPlugin 1.0
#
DISCID=900fe209
DTITLE=Sharrie Williams and The Wiseguys - Live At Bay - Car Blues Festi
DTITLE=val
DYEAR=1900
DGENRE=Blues
TTITLE0=Tell Mama
TTITLE1=Big Fall
TTITLE2=How Much Can A Woman Take
TTITLE3=Power
TTITLE4=I'll Take You There
TTITLE5=Hard Drivin' Woman
TTITLE6=I'll Give You Me
TTITLE7=Travellin'
TTITLE8=Applause
EXTD=
EXTT0=
EXTT1=
EXTT2=
EXTT3=
EXTT4=
EXTT5=
EXTT6=
EXTT7=
EXTT8=
PLAYORDER=
